<svg xmlns="http://www.w3.org/2000/svg" width="36" height="36" viewBox="0 0 36 36">
	<g transform="translate(0 -1016.362)">
		<path
			fill="#e2422f"
			style="line-height:normal;text-indent:0;text-align:start;text-decoration-line:none;text-decoration-style:solid;text-decoration-color:#000;text-transform:none;block-progression:tb;isolation:auto;mix-blend-mode:normal"
			d="M 17.992188,1022.2969 A 0.50004997,0.50004997 0 0 0 17.5,1022.8047 l 0,5.4492 a 0.50004997,0.50004997 0 1 0 1,0 l 0,-5.4492 a 0.50004997,0.50004997 0 0 0 -0.507812,-0.5078 z"
			color="#000"
			font-family="sans-serif"
			font-weight="400"
			overflow="visible"
		/>
		<path
      fill="#e2422f"
			style="line-height:normal;text-indent:0;text-align:start;text-decoration-line:none;text-decoration-style:solid;text-decoration-color:#000;text-transform:none;block-progression:tb;isolation:auto;mix-blend-mode:normal;marker:none"
			d="M4.375 1031.9043c-1.351461 0-2.4589844 1.1057-2.4589844 2.457 0 1.3515 1.1075241 2.459 2.4589844 2.459 1.351461 0 2.4570312-1.1075 2.4570312-2.459 0-1.3513-1.1055702-2.457-2.4570312-2.457zm0 1c.8109544 0 1.4570312.6462 1.4570312 1.457 0 .811-.6460768 1.459-1.4570312 1.459-.8109531 0-1.4589844-.648-1.4589844-1.459 0-.8108.6480302-1.457 1.4589844-1.457zM31.625 1031.9043c-1.351461 0-2.457031 1.1057-2.457031 2.457 0 1.3515 1.10557 2.459 2.457031 2.459 1.351461 0 2.458984-1.1075 2.458984-2.459 0-1.3513-1.107523-2.457-2.458984-2.457zm0 1c.810955 0 1.458984.6462 1.458984 1.457 0 .811-.648029 1.459-1.458984 1.459-.810953 0-1.457031-.648-1.457031-1.459 0-.8108.646078-1.457 1.457031-1.457zM18 1045.5293c-1.351437 0-2.457031 1.1075-2.457031 2.459 0 1.3514 1.105594 2.457 2.457031 2.457 1.351367 0 2.457031-1.1056 2.457031-2.457 0-1.3515-1.105664-2.459-2.457031-2.459zm0 1c.810879 0 1.457031.648 1.457031 1.459 0 .8109-.646152 1.457-1.457031 1.457-.810997 0-1.457031-.6461-1.457031-1.457 0-.811.646034-1.459 1.457031-1.459zM18 1018.2793c-1.351437 0-2.457031 1.1056-2.457031 2.457 0 1.3515 1.105594 2.4571 2.457031 2.4571 1.351367 0 2.457031-1.1056 2.457031-2.4571 0-1.3514-1.105664-2.457-2.457031-2.457zm0 1c.810879 0 1.457031.6461 1.457031 1.457 0 .811-.646152 1.4571-1.457031 1.4571-.810997 0-1.457031-.6461-1.457031-1.4571 0-.8109.646034-1.457 1.457031-1.457z"
			color="#000"
			font-family="sans-serif"
			font-weight="400"
			overflow="visible"
		/>
		<path
			fill="#e2422f"
			style="line-height:normal;text-indent:0;text-align:start;text-decoration-line:none;text-decoration-style:solid;text-decoration-color:#000;text-transform:none;block-progression:tb;isolation:auto;mix-blend-mode:normal"
			d="M 17.992188,1040.2461 A 0.50004997,0.50004997 0 0 0 17.5,1040.752 l 0,5.1679 a 0.50004997,0.50004997 0 1 0 1,0 l 0,-5.1679 a 0.50004997,0.50004997 0 0 0 -0.507812,-0.5059 z"
			color="#000"
			font-family="sans-serif"
			font-weight="400"
			overflow="visible"
		/>
		<path
			fill="#e2422f"
			style="line-height:normal;text-indent:0;text-align:start;text-decoration-line:none;text-decoration-style:solid;text-decoration-color:#000;text-transform:none;block-progression:tb;isolation:auto;mix-blend-mode:normal;marker:none"
			d="m 8.6953125,1022.4941 c -0.6296283,-0.022 -1.2673241,0.1938 -1.7617187,0.6543 -0.9888916,0.9211 -1.0442226,2.4839 -0.1230469,3.4727 0.7440324,0.7987 1.8540551,0.817 2.7949219,0.375 l 0.089844,0.2969 0.5878902,-0.5489 c 0.988741,-0.9212 1.044236,-2.4838 0.123047,-3.4726 -0.4605951,-0.4944 -1.0813089,-0.7551 -1.7109372,-0.7774 z m -0.035156,0.9922 c 0.3717868,0.013 0.7392404,0.1701 1.015625,0.4668 0.5527715,0.5934 0.5191195,1.5078 -0.074219,2.0606 -0.5933927,0.5528 -1.5058118,0.5191 -2.0585937,-0.074 -0.5527644,-0.5934 -0.5211229,-1.5059 0.072266,-2.0586 0.2966653,-0.2764 0.6731351,-0.4077 1.0449218,-0.3946 z"
			color="#000"
			font-family="sans-serif"
			font-weight="400"
			overflow="visible"
		/>
		<path
			fill="#e2422f"
			style="line-height:normal;text-indent:0;text-align:start;text-decoration-line:none;text-decoration-style:solid;text-decoration-color:#000;text-transform:none;block-progression:tb;isolation:auto;mix-blend-mode:normal"
			d="M29.550781 1033.8613l-6.253906.09a.50004997.50004997 0 1 0 .01367.998l6.253906-.088a.50004997.50004997 0 1 0-.01367-1zM6.4414062 1033.8613a.50004997.50004997 0 1 0 0 1l6.1074218 0a.50004997.50004997 0 1 0 0-1l-6.1074218 0z"
			color="#000"
			font-family="sans-serif"
			font-weight="400"
			overflow="visible"
		/>
		<path
			fill="#e2422f"
			style="line-height:normal;text-indent:0;text-align:start;text-decoration-line:none;text-decoration-style:solid;text-decoration-color:#000;text-transform:none;block-progression:tb;isolation:auto;mix-blend-mode:normal;marker:none"
			d="m 27.976562,1041.3809 c -0.629642,-0.022 -1.267295,0.1937 -1.761718,0.6543 -0.988859,0.9212 -1.044238,2.4857 -0.123047,3.4746 0.92112,0.9887 2.483787,1.0442 3.472656,0.123 0.867057,-0.8077 0.882539,-2.0641 0.285156,-3.039 l 0.0957,-0.1602 -0.257812,-0.2734 0,0 c -0.460585,-0.4944 -1.081295,-0.755 -1.710938,-0.7773 z m -0.03516,0.9941 c 0.371791,0.013 0.73924,0.1682 1.015625,0.4648 0.552784,0.5934 0.51918,1.5078 -0.07422,2.0606 -0.59339,0.5528 -1.507827,0.521 -2.060546,-0.072 -0.55277,-0.5933 -0.519163,-1.5077 0.07422,-2.0605 0.296697,-0.2764 0.673132,-0.4058 1.044922,-0.3926 z"
			color="#000"
			font-family="sans-serif"
			font-weight="400"
			overflow="visible"
		/>
		<path
			fill="#e2422f"
			style="line-height:normal;text-indent:0;text-align:start;text-decoration-line:none;text-decoration-style:solid;text-decoration-color:#000;text-transform:none;block-progression:tb;isolation:auto;mix-blend-mode:normal"
			d="m 23.253906,1039.0742 a 0.50004997,0.50004997 0 0 0 -0.339844,0.8613 l 2.955079,2.9063 a 0.50004997,0.50004997 0 1 0 0.701171,-0.7129 l -2.955078,-2.9062 a 0.50004997,0.50004997 0 0 0 -0.361328,-0.1485 z"
			color="#000"
			font-family="sans-serif"
			font-weight="400"
			overflow="visible"
		/>
		<path
			fill="#e2422f"
			style="line-height:normal;text-indent:0;text-align:start;text-decoration-line:none;text-decoration-style:solid;text-decoration-color:#000;text-transform:none;block-progression:tb;isolation:auto;mix-blend-mode:normal;marker:none"
			d="m 8.6015625,1041.3809 c -0.6296296,-0.022 -1.2673233,0.1937 -1.7617187,0.6543 -0.9889192,0.9211 -1.0442483,2.4857 -0.1230469,3.4746 0.9211764,0.9888 2.4838105,1.0442 3.4726561,0.123 0.988792,-0.9211 1.044198,-2.4857 0.123047,-3.4746 -0.4605917,-0.4944 -1.0813079,-0.755 -1.7109375,-0.7773 z m 1.5878905,4.2519 -0.3398436,0.1348 0.1972656,0 0.142578,-0.1348 z m -1.6230468,-3.2578 c 0.371788,0.013 0.7392467,0.1682 1.015625,0.4648 0.5528098,0.5935 0.5190898,1.5079 -0.074219,2.0606 -0.5933943,0.5528 -1.5077633,0.5211 -2.0605469,-0.072 -0.5527586,-0.5933 -0.5191621,-1.5078 0.074219,-2.0605 0.2966645,-0.2764 0.6731339,-0.4058 1.0449218,-0.3926 z"
			color="#000"
			font-family="sans-serif"
			font-weight="400"
			overflow="visible"
		/>
		<path
			fill="#e2422f"
			style="line-height:normal;text-indent:0;text-align:start;text-decoration-line:none;text-decoration-style:solid;text-decoration-color:#000;text-transform:none;block-progression:tb;isolation:auto;mix-blend-mode:normal"
			d="M9.8398438 1026.1738a.50004997.50004997 0 0 0-.3339844.8633l3.1406246 3.0332a.50004997.50004997 0 1 0 .695313-.7187l-3.140625-3.0332a.50004997.50004997 0 0 0-.3613282-.1446zM12.507812 1039.2461a.50004997.50004997 0 0 0-.34375.1484l-2.5566401 2.5078a.50068062.50068062 0 1 0 .7011721.7149l2.554687-2.5098a.50004997.50004997 0 0 0-.355469-.8613zM26.072266 1025.9277a.50004997.50004997 0 0 0-.345704.1485l-3.52539 3.4629a.50004997.50004997 0 1 0 .699219.7129l3.527343-3.4629a.50004997.50004997 0 0 0-.355468-.8614z"
			color="#000"
			font-family="sans-serif"
			font-weight="400"
			overflow="visible"
		/>
		<path
			fill="#cddbd6"
      style="line-height:normal;text-indent:0;text-align:start;text-decoration-line:none;text-decoration-style:solid;text-decoration-color:#000;text-transform:none;block-progression:tb;isolation:auto;mix-blend-mode:normal"
			d="m 17.931641,1030.1035 c -1.117516,0 -2.03125,0.9158 -2.03125,2.0332 l 0,1.5 c 0,0.4919 0.275117,0.8667 0.560547,1.1992 -0.219947,0.1094 -1.353519,0.6712 -2.566407,1.3321 -0.453897,0.227 -0.876953,0.668 -0.876953,1.2871 l 0,0.373 a 0.50005,0.50005 0 1 0 1,0 l 0,-0.373 c 0,-0.1005 0.138396,-0.2996 0.324219,-0.3926 a 0.50005,0.50005 0 0 0 0.01563,-0.01 c 1.260216,-0.6874 2.587847,-1.347 2.6875,-1.3965 l 0.83789,-0.01 c 0.01813,6e-4 0.03061,0.022 0.04883,0.022 0.01881,0 0.03207,-0.021 0.05078,-0.022 l 0.857422,-0.01 c 0.04889,0.024 0.09327,0.051 0.171875,0.09 0.153669,0.076 0.361547,0.1759 0.61914,0.3047 0.509825,0.2549 1.216974,0.6199 2.056641,1.0879 0.164046,0.1025 0.205078,0.1943 0.205078,0.4941 l 0,0.2383 a 0.50005,0.50005 0 1 0 1,0 l 0,-0.2383 c 0,-0.4998 -0.200107,-1.0466 -0.675781,-1.3437 a 0.50005,0.50005 0 0 0 -0.01953,-0.012 c -0.867853,-0.4844 -1.594778,-0.859 -2.119141,-1.1211 -0.262182,-0.1311 -0.4738,-0.2343 -0.625,-0.3086 -0.02573,-0.013 -0.01297,-0.01 -0.03711,-0.02 0.275973,-0.3295 0.548828,-0.6923 0.548828,-1.1738 l 0,-1.5 c 0,-1.1174 -0.915708,-2.0332 -2.033203,-2.0332 z m 0,1 c 0.580685,0 1.033203,0.4526 1.033203,1.0332 l 0,1.5 c 0,0.253 -0.136849,0.5137 -0.357422,0.7168 -0.205331,0.1891 -0.466117,0.2805 -0.628906,0.2949 l -0.0918,0 c -0.162661,-0.014 -0.423085,-0.1053 -0.628907,-0.2949 -0.220576,-0.2031 -0.357421,-0.4638 -0.357421,-0.7168 l 0,-1.5 c 0,-0.5806 0.450525,-1.0332 1.03125,-1.0332 z"
			color="#000"
			font-family="sans-serif"
			font-weight="400"
			overflow="visible"
		/>
		<path
			fill="#e2422f"
			d="m 27.541016,1022.3622 c -1.351461,0 -2.457031,1.1057 -2.457031,2.457 0,1.3515 1.10557,2.459 2.457031,2.459 1.351461,0 2.458984,-1.1075 2.458984,-2.459 0,-1.3513 -1.107523,-2.457 -2.458984,-2.457 z m 0,1 c 0.810955,0 1.458984,0.6462 1.458984,1.457 0,0.811 -0.648029,1.459 -1.458984,1.459 -0.810953,0 -1.457031,-0.648 -1.457031,-1.459 0,-0.8108 0.646078,-1.457 1.457031,-1.457 z"
			color="#000"
			font-family="sans-serif"
			font-weight="400"
			overflow="visible"
			style="line-height:normal;text-indent:0;text-align:start;text-decoration-line:none;text-decoration-style:solid;text-decoration-color:#000;text-transform:none;block-progression:tb;isolation:auto;mix-blend-mode:normal;marker:none"
		/>
	</g>
</svg>
